<?xml version="1.0" encoding="utf-8"?>
<!-- Svg Vector Icons : http://www.onlinewebfonts.com/icon -->
<!DOCTYPE svg PUBLIC "-//W3C//DTD SVG 1.1//EN" "http://www.w3.org/Graphics/SVG/1.1/DTD/svg11.dtd">
<svg version="1.1" xmlns="http://www.w3.org/2000/svg" xmlns:xlink="http://www.w3.org/1999/xlink" x="0px" y="0px" viewBox="0 0 256 256" enable-background="new 0 0 256 256" xml:space="preserve">
<metadata> Svg Vector Icons : http://www.onlinewebfonts.com/icon </metadata>
<g> <path fill="#000000" d="M128.5,211.2c-52,0-97.7-31.2-116.4-79L10,128l1-4.2c19.8-47.8,65.5-79,117.5-79c50.9,0,97.7,32.2,116.4,79 l1,4.2l-2.1,4.2C226.2,178.9,179.5,211.2,128.5,211.2z M32.9,128c16.6,37.4,54.1,62.4,95.6,62.4c41.6,0,79-25,95.6-62.4 c-16.6-37.4-54.1-62.4-95.6-62.4C86.9,65.6,49.5,90.6,32.9,128z M88,128c0,23,18.6,41.6,41.6,41.6c23,0,41.6-18.6,41.6-41.6 c0,0,0,0,0,0c0-23-18.6-41.6-41.6-41.6C106.6,86.4,88,105,88,128z"/></g>
</svg>