<?xml version="1.0" encoding="utf-8"?>
<!-- Svg Vector Icons : http://www.onlinewebfonts.com/icon -->
<!DOCTYPE svg PUBLIC "-//W3C//DTD SVG 1.1//EN" "http://www.w3.org/Graphics/SVG/1.1/DTD/svg11.dtd">
<svg version="1.1" xmlns="http://www.w3.org/2000/svg" xmlns:xlink="http://www.w3.org/1999/xlink" x="0px" y="0px" viewBox="0 0 256 256" enable-background="new 0 0 256 256" xml:space="preserve">
<metadata> Svg Vector Icons : http://www.onlinewebfonts.com/icon </metadata>
<g><g><g><g><path fill="#000000" d="M233.1,104.6h-12.5c-2.3-9.1-5.9-17.6-10.7-25.3l9-9c2.4-2.4,3.8-5.7,3.8-9.1s-1.3-6.7-3.8-9.1l-15-15c-4.9-4.9-13.4-4.9-18.2,0l-9.4,9.3c-7.7-4.5-15.9-7.9-25-10.1V22.9c0-7.1-5.7-12.9-12.8-12.9h-21.2c-7.1,0-12.7,5.8-12.7,12.9v13.4c-9.1,2.2-17.3,5.7-25,10.1l-9.4-9.3c-4.9-4.9-13.4-4.9-18.2,0l-15,15c-2.4,2.4-3.8,5.7-3.8,9.1c0,3.4,1.3,6.7,3.8,9.1l9,9c-4.7,7.8-8.4,16.3-10.7,25.3H22.8c-7.1,0-12.8,5.7-12.8,12.8v21.2c0,7.1,5.7,12.7,12.8,12.7h12.5c2.3,9.1,5.9,17.6,10.7,25.4l-9,9.1c-2.4,2.4-3.8,5.7-3.8,9.1c0,3.4,1.3,6.7,3.8,9.1l15,15c2.4,2.4,5.7,3.8,9.1,3.8c3.4,0,6.7-1.3,9.1-3.8l9.4-9.3c7.7,4.5,16,7.9,25,10.2v13.4c0,7.1,5.6,12.8,12.7,12.8h21.2c7.1,0,12.8-5.7,12.8-12.8v-13.4c9.1-2.2,17.3-5.7,25-10.1l9.3,9.3c2.4,2.4,5.7,3.8,9.1,3.8s6.7-1.3,9.1-3.8l15-15c2.4-2.4,3.8-5.7,3.8-9.1c0-3.4-1.3-6.7-3.8-9.1l-9-9.1c4.7-7.8,8.4-16.3,10.7-25.4h12.5c7.1,0,12.9-5.6,12.9-12.7v-21.2C246.1,110.4,240.2,104.6,233.1,104.6z M128,168.4c-22.5,0-40.7-18.1-40.7-40.3c0-22.3,18.2-40.3,40.7-40.3c22.5,0,40.7,18,40.7,40.3C168.7,150.3,150.5,168.4,128,168.4z"/></g></g><g></g><g></g><g></g><g></g><g></g><g></g><g></g><g></g><g></g><g></g><g></g><g></g><g></g><g></g><g></g></g></g>
</svg>