<?xml version="1.0" encoding="utf-8"?>
<!-- Svg Vector Icons : http://www.onlinewebfonts.com/icon -->
<!DOCTYPE svg PUBLIC "-//W3C//DTD SVG 1.1//EN" "http://www.w3.org/Graphics/SVG/1.1/DTD/svg11.dtd">
<svg version="1.1" xmlns="http://www.w3.org/2000/svg" xmlns:xlink="http://www.w3.org/1999/xlink" x="0px" y="0px" viewBox="0 0 256 256" enable-background="new 0 0 256 256" xml:space="preserve">
<metadata> Svg Vector Icons : http://www.onlinewebfonts.com/icon </metadata>
<g><g><g><path fill="#000000" d="M13.4,70.3c-0.6,0.2-1.7,1.1-2.3,1.9L10,73.7V128v54.4l1.8,1.8l1.8,1.8H128h114.3l1.8-1.8l1.8-1.8V128V73.5l-1.6-1.7l-1.6-1.8l-114.2-0.1C65.9,69.8,14,70,13.4,70.3z M43,90c0.8,0.7,1,1.7,1,4.6c0,5.2-0.6,5.8-5.7,5.8c-3.6,0-4-0.1-4.9-1.3c-1.2-1.9-0.9-8.2,0.6-9.2C35.5,88.8,41.7,88.9,43,90z M62.2,90c1,0.7,1.2,1.3,1.2,4.6c0,5.2-0.6,5.8-5.7,5.8c-4.9,0-5.6-0.8-5.6-5.8c0-4.6,0.9-5.5,5.6-5.5C59.7,89.1,61.3,89.4,62.2,90z M81.6,90c1,0.7,1.2,1.3,1.2,4.4c0,5.3-0.6,6-5.5,6c-5.2,0-5.8-0.6-5.8-5.5s0.9-5.8,5.6-5.8C79.1,89.1,80.7,89.4,81.6,90z M101.1,90.2c0.9,0.9,1.1,1.8,1.1,4.5c0,5-0.7,5.8-5.5,5.8c-5.2,0-5.8-0.6-5.8-5.7c0-4.9,0.8-5.6,5.8-5.6C99.3,89.1,100.2,89.3,101.1,90.2z M120.5,90.3c1,1,1.1,1.6,0.9,4.9c-0.3,4.7-0.9,5.3-5.9,5.3c-4.8,0-5.3-0.5-5.3-5.5c0-5.2,0.6-5.8,5.5-5.8C118.7,89.1,119.6,89.3,120.5,90.3z M139.1,89.6c1.1,0.8,1.8,2.7,1.8,5.2c0,2.5-0.7,4.5-1.8,5.2c-0.9,0.6-7.3,0.5-8.5-0.1c-0.9-0.5-1-1.2-1-4.7c0-5.4,0.5-6.1,5.3-6.1C136.9,89.1,138.8,89.3,139.1,89.6z M158.8,90c0.8,0.7,1,1.7,1,4.6c0,5.2-0.6,5.8-5.7,5.8c-3.6,0-4-0.1-4.8-1.3c-1.2-1.9-0.9-8.2,0.6-9.2C151.3,88.8,157.5,88.9,158.8,90z M178.2,90c0.8,0.7,1,1.7,1,4.6c0,5.2-0.6,5.8-5.7,5.8c-4.9,0-5.6-0.8-5.6-5.8c0-4.7,0.9-5.5,5.8-5.5C176.2,89.1,177.5,89.4,178.2,90z M197.4,90c1,0.7,1.2,1.3,1.2,4.4c0,5.3-0.6,6-5.5,6c-5.2,0-5.8-0.6-5.8-5.5s0.9-5.8,5.5-5.8C195,89.1,196.6,89.4,197.4,90z M222.8,90.2c0.3,0.6,0.5,2.6,0.5,4.6c0,2.9-0.2,3.8-1.1,4.7c-1,1-1.6,1.1-8.4,0.9c-5.7-0.1-7.4-0.3-7.8-1c-0.8-1.2-0.6-8.8,0.1-9.6c0.4-0.4,3.1-0.6,8.4-0.6C221.6,89.1,222.3,89.2,222.8,90.2z M67.8,112.1c0.8,0.7,1,1.7,1,4.6c0,5.1-0.6,5.8-5.4,5.8c-5.1,0-5.7-0.5-5.7-5.7c0-3.4,0.2-4.3,1-4.9C60.3,110.8,66.5,111,67.8,112.1z M87.2,112.1c0.8,0.7,1,1.7,1,4.6c0,5.2-0.6,5.8-5.7,5.8c-4.9,0-5.6-0.8-5.6-5.8c0-4.7,0.9-5.5,5.8-5.5C85.2,111.2,86.5,111.5,87.2,112.1z M106.3,112.1c1,0.7,1.2,1.3,1.2,4.6c0,5.2-0.6,5.8-5.7,5.8c-4.9,0-5.6-0.8-5.6-5.8c0-4.6,0.9-5.5,5.5-5.5C103.9,111.2,105.5,111.5,106.3,112.1z M125.8,112.3c0.9,0.9,1.1,1.8,1.1,4.5c0,5-0.7,5.8-5.5,5.8c-5.2,0-5.8-0.6-5.8-5.7c0-4.9,0.8-5.6,5.8-5.6C124.1,111.2,125,111.4,125.8,112.3z M145.2,112.3c0.9,0.9,1.1,1.8,1.1,4.6c0,4.8-0.9,5.7-5.8,5.7s-5.5-0.6-5.5-5.6c0-5.1,0.6-5.8,5.5-5.8C143.5,111.2,144.4,111.4,145.2,112.3z M164.3,111.9c1.1,0.8,1.8,5.2,1.2,7.6c-0.6,2.4-1.7,3-5.7,3c-4.9,0-5.4-0.5-5.4-5.5c0-5.2,0.6-5.8,5.4-5.8C161.9,111.2,163.8,111.5,164.3,111.9z M183.6,112.1c0.8,0.7,1,1.7,1,4.8c0,5.1-0.5,5.6-5.3,5.6c-4.6,0-5.5-0.6-5.9-4.2c-0.3-3.2,0.1-5.1,1.3-6.2C175.8,110.8,182.3,110.9,183.6,112.1z M203,112.1c0.8,0.7,1,1.7,1,4.6c0,5.1-0.6,5.8-5.5,5.8c-5,0-5.8-0.8-5.8-5.7c0-4.8,0.9-5.7,5.8-5.7C201,111.2,202.3,111.5,203,112.1z M222.4,112.1c0.8,0.7,1,1.7,1,4.6c0,5.2-0.6,5.8-5.7,5.8c-4.9,0-5.6-0.8-5.6-5.8c0-4.7,0.9-5.5,5.8-5.5C220.4,111.2,221.7,111.5,222.4,112.1z M49,112.6c0.6,1.6,0.3,8.6-0.3,9.3c-0.4,0.4-3,0.6-7.8,0.6c-8.3,0-8.2,0.1-8.2-5.4s-0.1-5.4,8.6-5.4C47.5,111.8,48.7,111.9,49,112.6z M73.6,134.4c1,1,1.1,1.6,0.9,4.9c-0.3,4.7-0.9,5.3-5.9,5.3c-4.8,0-5.3-0.5-5.3-5.5c0-5.2,0.6-5.8,5.5-5.8C71.9,133.3,72.7,133.5,73.6,134.4z M92.7,134.2c0.6,0.6,0.9,1.9,0.9,4.8c0,5.1-0.5,5.7-5.2,5.7c-5.3,0-5.6-0.3-5.6-5.4c0-5.4,0.4-5.9,5.4-5.9C90.8,133.3,92.1,133.5,92.7,134.2z M111.9,134.2c0.8,0.7,1,1.7,1,4.6c0,5.1-0.6,5.8-5.5,5.8c-5,0-5.8-0.8-5.8-5.7c0-4.8,0.9-5.7,5.8-5.7C110,133.3,111.2,133.6,111.9,134.2z M131.3,134.2c0.8,0.7,1,1.7,1,4.6c0,5.2-0.6,5.8-5.7,5.8c-4.9,0-5.6-0.8-5.6-5.8c0-4.7,0.9-5.6,5.8-5.6C129.3,133.3,130.6,133.6,131.3,134.2z M150.7,134.2c0.8,0.6,1,1.7,1,4.4c0,5.2-0.7,6-5.5,6c-5.2,0-5.8-0.6-5.8-5.5c0-5,0.8-5.8,5.8-5.8C148.7,133.3,150,133.6,150.7,134.2z M170,134.4c0.9,0.9,1.1,1.8,1.1,4.6c0,4.8-0.9,5.7-5.8,5.7c-4.9,0-5.5-0.6-5.5-5.5c0-5.1,0.6-5.8,5.5-5.8C168.2,133.3,169.2,133.5,170,134.4z M189.5,134.4c1,1,1.1,1.6,0.9,4.9c-0.3,4.7-0.9,5.3-5.8,5.3c-4.8,0-5.4-0.6-5.4-5.5c0-5.1,0.6-5.8,5.5-5.8C187.7,133.3,188.6,133.5,189.5,134.4z M54.1,134.5c0.4,0.4,0.6,2.3,0.6,4.7c0,2.5-0.3,4.4-0.6,4.7c-0.4,0.4-3.4,0.6-10.1,0.6c-6.7,0-9.7-0.2-10.1-0.6c-0.4-0.4-0.6-2.3-0.6-4.9c0-3.4,0.2-4.3,1-4.7C35.5,133.6,53.3,133.7,54.1,134.5z M222.5,135c0.5,0.8,0.9,2.4,0.9,4.2c0,1.8-0.3,3.4-0.9,4.2c-0.8,1.1-1.1,1.2-11.7,1.2c-7.8,0-11-0.2-11.5-0.6c-0.9-0.9-0.9-8.6,0-9.5c0.5-0.5,3.8-0.6,11.5-0.6C221.4,133.9,221.7,133.9,222.5,135z M43,156.3c0.8,0.7,1,1.7,1,4.6c0,5.1-0.6,5.8-5.5,5.8c-5,0-5.8-0.8-5.8-5.7c0-4.8,0.9-5.7,5.8-5.7C41,155.4,42.3,155.7,43,156.3z M62.4,156.3c0.8,0.7,1,1.7,1,4.6c0,5.1-0.6,5.8-5.5,5.8c-5,0-5.8-0.8-5.8-5.7c0-4.8,0.9-5.7,5.8-5.7C60.4,155.4,61.7,155.7,62.4,156.3z M81.8,156.3c0.8,0.6,1,1.7,1,4.4c0,5.2-0.7,6-5.5,6c-5.2,0-5.8-0.6-5.8-5.5c0-5.2,0.6-5.8,5.6-5.8C79.8,155.4,81,155.6,81.8,156.3z M163.9,156.8c1.2,1.9,0.9,8.2-0.6,9.2c-0.9,0.6-7.1,0.8-35.9,0.8c-31,0-35-0.1-35.7-0.9c-0.6-0.6-0.9-1.9-0.9-4.8c0-2.9,0.2-4.2,0.9-4.8c0.8-0.8,4.7-0.9,36-0.9H163L163.9,156.8z M183.6,156.3c1.3,1.2,1.4,8,0.1,9.4c-1.2,1.3-8,1.4-9.4,0.1c-1.3-1.2-1.4-8-0.1-9.4C175.4,155,182.1,155,183.6,156.3z M202.9,156.5c0.9,0.9,1.1,1.8,1.1,4.5c0,5-0.7,5.8-5.5,5.8c-5.2,0-5.8-0.6-5.8-5.5c0-5.1,0.6-5.8,5.5-5.8C201.1,155.4,202,155.6,202.9,156.5z M222,156.2c0.8,0.6,1.1,1.6,1.2,4.5c0.3,5.2-0.5,6-5.8,6c-5,0-5.4-0.5-5.4-5.5c0-5.2,0.6-5.8,5.4-5.8C219.7,155.4,221.4,155.7,222,156.2z"/></g></g></g>
</svg>